<?xml version="1.0" encoding="UTF-8"?>
<!DOCTYPE svg PUBLIC "-//W3C//DTD SVG 1.1//EN" "http://www.w3.org/Graphics/SVG/1.1/DTD/svg11.dtd">
<!-- Creator: CorelDRAW -->
<svg xmlns="http://www.w3.org/2000/svg" xml:space="preserve" width="166px" height="60px" version="1.1" style="shape-rendering:geometricPrecision; text-rendering:geometricPrecision; image-rendering:optimizeQuality; fill-rule:evenodd; clip-rule:evenodd"
viewBox="0 0 166 60"
 xmlns:xlink="http://www.w3.org/1999/xlink"
 xmlns:xodm="http://www.corel.com/coreldraw/odm/2003">
 <defs>
  <style type="text/css">
   <![CDATA[
    .fil0 {fill:none}
    .fil2 {fill:#FEFEFE;fill-rule:nonzero}
    .fil4 {fill:#E31E24;fill-rule:nonzero}
    .fil3 {fill:#E31E24;fill-rule:nonzero}
    .fil1 {fill:#200E66;fill-rule:nonzero}
   ]]>
  </style>
 </defs>
 <g id="Layer_x0020_1">
  <metadata id="CorelCorpID_0Corel-Layer"/>
  <g id="_1978052445232">
   <polygon class="fil0" points="0.2,0 165.8,0 165.8,60 0.2,60 "/>
   <g>
    <path class="fil1" d="M20.71 48.79l0 -33.69 -20.43 0 0 -15.1 55.62 0 0 15.1 -18.58 0 0 37.43 -16.61 0 0 -3.74zm7.49 -37.43l0 33.69 1.63 0 0 -37.44 18.58 0 0 -0.13 -40.65 0 0 0.13 20.44 0 0 3.75z"/>
    <polygon class="fil2" points="24.45,48.79 24.45,11.36 4.02,11.36 4.02,3.74 52.16,3.74 52.16,11.36 33.58,11.36 33.58,48.79 "/>
    <polygon class="fil3" points="26.04,48.79 26.04,11.36 5.61,11.36 5.61,4.8 52.16,4.8 52.16,11.36 33.58,11.36 33.58,48.79 "/>
    <polygon class="fil1" points="0.2,49.18 0.2,16.4 15.25,16.4 15.25,52.53 0.2,52.53 "/>
    <polygon class="fil2" points="4.88,48.52 4.88,20.41 10.57,20.41 10.57,48.52 "/>
    <polygon class="fil4" points="6.06,48.52 6.06,21.53 10.57,21.53 10.57,48.52 "/>
   </g>
   <path class="fil4" d="M40.12 37.21l0 -19.68 4.21 0 0 19.68 -4.21 0zm109.88 0l0 -19.68 15.39 0 0 3.33 -11.18 0 0 4.37 10.4 0 0 3.32 -10.4 0 0 5.34 11.59 0 0 3.32 -15.8 0zm-20.48 -6.37l4.1 -0.39c0.25,1.3 0.74,2.25 1.49,2.85 0.75,0.61 1.76,0.92 3.03,0.92 1.35,0 2.37,-0.27 3.05,-0.81 0.68,-0.55 1.02,-1.18 1.02,-1.9 0,-0.47 -0.14,-0.86 -0.43,-1.19 -0.28,-0.33 -0.78,-0.61 -1.5,-0.85 -0.49,-0.16 -1.6,-0.45 -3.35,-0.86 -2.24,-0.53 -3.81,-1.18 -4.72,-1.96 -1.27,-1.08 -1.9,-2.41 -1.9,-3.97 0,-1 0.3,-1.95 0.89,-2.82 0.6,-0.88 1.46,-1.54 2.59,-2 1.13,-0.46 2.49,-0.69 4.08,-0.69 2.6,0 4.56,0.55 5.88,1.64 1.31,1.1 2,2.56 2.07,4.38l-4.21 0.14c-0.18,-1.02 -0.57,-1.75 -1.15,-2.19 -0.59,-0.44 -1.47,-0.67 -2.64,-0.67 -1.21,0 -2.16,0.24 -2.84,0.72 -0.44,0.3 -0.67,0.71 -0.67,1.22 0,0.47 0.21,0.87 0.63,1.2 0.53,0.43 1.81,0.87 3.85,1.32 2.04,0.46 3.54,0.94 4.52,1.42 0.97,0.49 1.74,1.15 2.29,2 0.55,0.85 0.83,1.89 0.83,3.14 0,1.12 -0.33,2.18 -1,3.17 -0.66,0.98 -1.59,1.71 -2.8,2.19 -1.21,0.48 -2.72,0.72 -4.53,0.72 -2.63,0 -4.65,-0.57 -6.05,-1.72 -1.41,-1.15 -2.25,-2.82 -2.53,-5.01zm-19.87 -13.31l4.21 0 0 10.67c0,1.69 0.06,2.79 0.16,3.29 0.18,0.8 0.6,1.45 1.26,1.94 0.68,0.49 1.59,0.73 2.75,0.73 1.18,0 2.07,-0.23 2.67,-0.69 0.6,-0.46 0.96,-1.03 1.08,-1.7 0.12,-0.67 0.19,-1.79 0.19,-3.34l0 -10.9 4.21 0 0 10.35c0,2.36 -0.11,4.04 -0.34,5.01 -0.23,0.98 -0.65,1.8 -1.26,2.48 -0.6,0.67 -1.41,1.2 -2.43,1.6 -1.02,0.4 -2.35,0.6 -3.99,0.6 -1.98,0 -3.48,-0.22 -4.5,-0.65 -1.02,-0.44 -1.83,-1 -2.43,-1.7 -0.59,-0.69 -0.98,-1.42 -1.17,-2.18 -0.27,-1.13 -0.41,-2.8 -0.41,-5l0 -10.51zm-17.63 19.68l0 -19.51 4.22 0 0 16.19 10.42 0 0 3.32 -14.64 0zm-19.49 0l0 -19.68 6.74 0c2.55,0 4.21,0.1 4.98,0.29 1.19,0.3 2.19,0.94 2.99,1.93 0.81,0.99 1.21,2.27 1.21,3.84 0,1.21 -0.23,2.22 -0.69,3.04 -0.47,0.83 -1.05,1.47 -1.76,1.95 -0.72,0.46 -1.44,0.78 -2.18,0.93 -1,0.18 -2.45,0.28 -4.34,0.28l-2.74 0 0 7.42 -4.21 0zm4.21 -16.35l0 5.6 2.3 0c1.65,0 2.74,-0.1 3.3,-0.31 0.56,-0.2 0.99,-0.52 1.31,-0.97 0.31,-0.44 0.47,-0.95 0.47,-1.53 0,-0.72 -0.22,-1.31 -0.66,-1.78 -0.45,-0.47 -1,-0.76 -1.68,-0.88 -0.5,-0.09 -1.5,-0.13 -3.02,-0.13l-2.02 0zm-28.46 16.35l0 -19.68 6.31 0 3.73 13.42 3.68 -13.42 6.32 0 0 19.68 -3.89 0 -0.01 -15.49 -4.11 15.49 -4.04 0 -4.08 -15.49 -0.02 15.49 -3.89 0z"/>
   <path class="fil1" d="M43.91 52.3l0 -10.63 -3.78 0 0 -2.16 10.14 0 0 2.16 -3.77 0 0 10.63 -2.59 0zm8.04 0l0 -12.79 9.47 0 0 2.16 -6.88 0 0 2.84 6.39 0 0 2.16 -6.39 0 0 3.47 7.13 0 0 2.16 -9.72 0zm20.1 -4.72l2.5 0.77c-0.39,1.41 -1.03,2.46 -1.92,3.14 -0.89,0.68 -2.03,1.02 -3.4,1.02 -1.7,0 -3.1,-0.58 -4.19,-1.74 -1.09,-1.16 -1.64,-2.75 -1.64,-4.76 0,-2.13 0.55,-3.79 1.65,-4.96 1.1,-1.18 2.54,-1.77 4.34,-1.77 1.56,0 2.83,0.46 3.81,1.39 0.58,0.54 1.02,1.33 1.31,2.36l-2.55 0.61c-0.16,-0.67 -0.47,-1.19 -0.95,-1.57 -0.48,-0.39 -1.07,-0.58 -1.75,-0.58 -0.95,0 -1.72,0.34 -2.31,1.02 -0.59,0.68 -0.89,1.78 -0.89,3.31 0,1.61 0.29,2.76 0.87,3.45 0.59,0.69 1.34,1.03 2.27,1.03 0.69,0 1.28,-0.22 1.78,-0.66 0.49,-0.43 0.85,-1.12 1.07,-2.06zm4.71 4.72l0 -12.79 2.59 0 0 5.04 5.04 0 0 -5.04 2.59 0 0 12.79 -2.59 0 0 -5.59 -5.04 0 0 5.59 -2.59 0zm12.9 0l0 -12.79 2.51 0 5.27 8.57 0 -8.57 2.39 0 0 12.79 -2.59 0 -5.18 -8.41 0 8.41 -2.4 0zm12.37 -6.32c0,-1.3 0.2,-2.4 0.59,-3.29 0.28,-0.65 0.68,-1.23 1.19,-1.75 0.5,-0.52 1.05,-0.9 1.65,-1.16 0.8,-0.33 1.72,-0.5 2.76,-0.5 1.89,0 3.39,0.58 4.53,1.75 1.13,1.18 1.69,2.81 1.69,4.89 0,2.07 -0.56,3.69 -1.68,4.86 -1.12,1.17 -2.63,1.75 -4.51,1.75 -1.9,0 -3.41,-0.58 -4.54,-1.74 -1.12,-1.16 -1.68,-2.77 -1.68,-4.81zm2.66 -0.08c0,1.45 0.34,2.54 1.01,3.29 0.67,0.75 1.52,1.13 2.55,1.13 1.03,0 1.88,-0.38 2.54,-1.12 0.66,-0.74 0.99,-1.85 0.99,-3.34 0,-1.47 -0.32,-2.56 -0.96,-3.28 -0.65,-0.73 -1.5,-1.09 -2.57,-1.09 -1.07,0 -1.93,0.37 -2.58,1.1 -0.65,0.73 -0.98,1.83 -0.98,3.31zm11.84 6.4l0 -12.68 2.59 0 0 10.52 6.41 0 0 2.16 -9 0zm10.31 -6.32c0,-1.3 0.19,-2.4 0.58,-3.29 0.29,-0.65 0.69,-1.23 1.19,-1.75 0.51,-0.52 1.06,-0.9 1.66,-1.16 0.79,-0.33 1.71,-0.5 2.76,-0.5 1.88,0 3.39,0.58 4.52,1.75 1.13,1.18 1.7,2.81 1.7,4.89 0,2.07 -0.56,3.69 -1.68,4.86 -1.13,1.17 -2.63,1.75 -4.51,1.75 -1.9,0 -3.42,-0.58 -4.54,-1.74 -1.12,-1.16 -1.68,-2.77 -1.68,-4.81zm2.66 -0.08c0,1.45 0.33,2.54 1,3.29 0.67,0.75 1.53,1.13 2.56,1.13 1.03,0 1.87,-0.38 2.54,-1.12 0.66,-0.74 0.99,-1.85 0.99,-3.34 0,-1.47 -0.32,-2.56 -0.97,-3.28 -0.64,-0.73 -1.5,-1.09 -2.56,-1.09 -1.07,0 -1.93,0.37 -2.58,1.1 -0.65,0.73 -0.98,1.83 -0.98,3.31zm17.71 1.7l0 -2.16 5.56 0 0 5.1c-0.54,0.53 -1.32,0.99 -2.35,1.39 -1.02,0.4 -2.06,0.6 -3.12,0.6 -1.33,0 -2.5,-0.28 -3.49,-0.84 -0.99,-0.56 -1.74,-1.37 -2.24,-2.42 -0.5,-1.04 -0.75,-2.18 -0.75,-3.41 0,-1.33 0.28,-2.52 0.84,-3.56 0.56,-1.03 1.37,-1.83 2.45,-2.39 0.82,-0.42 1.84,-0.63 3.06,-0.63 1.58,0 2.83,0.33 3.72,1 0.89,0.67 1.46,1.59 1.72,2.77l-2.57 0.48c-0.18,-0.63 -0.52,-1.13 -1.02,-1.49 -0.49,-0.37 -1.11,-0.55 -1.86,-0.55 -1.12,0 -2.02,0.36 -2.68,1.08 -0.66,0.71 -1,1.78 -1,3.18 0,1.53 0.34,2.67 1.01,3.43 0.68,0.76 1.56,1.14 2.65,1.14 0.54,0 1.08,-0.11 1.62,-0.32 0.55,-0.21 1.01,-0.47 1.4,-0.78l0 -1.62 -2.95 0zm11.31 4.7l0 -5.38 -4.69 -7.41 3.03 0 3.02 5.06 2.95 -5.06 2.97 0 -4.69 7.42 0 5.37 -2.59 0z"/>
   <path class="fil4" d="M0.2 56.02l0 -0.84 0.91 0 0 0.84 -0.91 0zm0 3.89l0 -3.43 0.91 0 0 3.43 -0.91 0zm5.52 0l0 -4.73 0.93 0 1.95 3.17 0 -3.17 0.89 0 0 4.73 -0.96 0 -1.92 -3.11 0 3.11 -0.89 0zm8.46 0l0 -4.73 0.93 0 1.95 3.17 0 -3.17 0.89 0 0 4.73 -0.96 0 -1.92 -3.11 0 3.11 -0.89 0zm8.26 -2.34c0,-0.48 0.07,-0.89 0.22,-1.21 0.1,-0.25 0.25,-0.46 0.44,-0.66 0.18,-0.19 0.39,-0.33 0.61,-0.42 0.3,-0.13 0.64,-0.19 1.02,-0.19 0.7,0 1.26,0.22 1.68,0.65 0.42,0.43 0.63,1.04 0.63,1.81 0,0.77 -0.21,1.37 -0.63,1.8 -0.41,0.43 -0.97,0.65 -1.66,0.65 -0.71,0 -1.27,-0.22 -1.69,-0.65 -0.41,-0.43 -0.62,-1.02 -0.62,-1.78zm0.99 -0.03c0,0.54 0.12,0.94 0.37,1.22 0.25,0.28 0.56,0.42 0.94,0.42 0.39,0 0.7,-0.14 0.95,-0.41 0.24,-0.28 0.36,-0.69 0.36,-1.24 0,-0.55 -0.12,-0.95 -0.36,-1.22 -0.23,-0.27 -0.55,-0.4 -0.95,-0.4 -0.39,0 -0.71,0.14 -0.95,0.41 -0.24,0.27 -0.36,0.67 -0.36,1.22zm9.25 2.37l-1.7 -4.73 1.04 0 1.2 3.5 1.15 -3.5 1.02 0 -1.68 4.73 -1.03 0zm10.65 0l-1.03 0 -0.41 -1.08 -1.9 0 -0.39 1.08 -1.02 0 1.84 -4.73 1.02 0 1.89 4.73zm-1.75 -1.88l-0.66 -1.75 -0.64 1.75 1.3 0zm6.52 1.88l0 -3.93 -1.4 0 0 -0.8 3.75 0 0 0.8 -1.39 0 0 3.93 -0.96 0zm6.65 0l0 -4.73 3.51 0 0 0.8 -2.55 0 0 1.05 2.37 0 0 0.8 -2.37 0 0 1.28 2.64 0 0 0.8 -3.6 0zm12.9 0l0 -1.99 -1.74 -2.74 1.12 0 1.12 1.87 1.09 -1.87 1.1 0 -1.73 2.75 0 1.98 -0.96 0zm6.65 -2.34c0,-0.48 0.07,-0.89 0.21,-1.21 0.11,-0.25 0.26,-0.46 0.44,-0.66 0.19,-0.19 0.4,-0.33 0.62,-0.42 0.29,-0.13 0.63,-0.19 1.02,-0.19 0.7,0 1.26,0.22 1.68,0.65 0.41,0.43 0.62,1.04 0.62,1.81 0,0.77 -0.2,1.37 -0.62,1.8 -0.42,0.43 -0.97,0.65 -1.67,0.65 -0.7,0 -1.26,-0.22 -1.68,-0.65 -0.42,-0.43 -0.62,-1.02 -0.62,-1.78zm0.98 -0.03c0,0.54 0.13,0.94 0.37,1.22 0.25,0.28 0.57,0.42 0.95,0.42 0.38,0 0.7,-0.14 0.94,-0.41 0.25,-0.28 0.37,-0.69 0.37,-1.24 0,-0.55 -0.12,-0.95 -0.36,-1.22 -0.24,-0.27 -0.55,-0.4 -0.95,-0.4 -0.39,0 -0.71,0.14 -0.96,0.41 -0.24,0.27 -0.36,0.67 -0.36,1.22zm8.04 -2.36l0.96 0 0 2.56c0,0.41 0.01,0.67 0.03,0.79 0.05,0.2 0.14,0.35 0.29,0.47 0.16,0.12 0.37,0.18 0.63,0.18 0.27,0 0.47,-0.06 0.61,-0.17 0.13,-0.11 0.22,-0.25 0.24,-0.41 0.03,-0.16 0.05,-0.43 0.05,-0.8l0 -2.62 0.95 0 0 2.49c0,0.57 -0.02,0.97 -0.07,1.2 -0.05,0.24 -0.15,0.44 -0.29,0.6 -0.14,0.16 -0.32,0.29 -0.55,0.38 -0.24,0.1 -0.54,0.15 -0.91,0.15 -0.45,0 -0.79,-0.05 -1.03,-0.16 -0.23,-0.1 -0.41,-0.24 -0.55,-0.41 -0.14,-0.16 -0.22,-0.34 -0.27,-0.52 -0.06,-0.27 -0.09,-0.67 -0.09,-1.2l0 -2.53zm8.46 4.73l0 -4.73 2.01 0c0.51,0 0.88,0.04 1.11,0.12 0.23,0.09 0.41,0.24 0.55,0.46 0.13,0.22 0.2,0.46 0.2,0.74 0,0.36 -0.1,0.65 -0.31,0.88 -0.21,0.24 -0.52,0.38 -0.93,0.44 0.21,0.12 0.37,0.25 0.51,0.4 0.13,0.14 0.31,0.4 0.54,0.77l0.58 0.92 -1.15 0 -0.68 -1.03c-0.25,-0.37 -0.42,-0.6 -0.51,-0.7 -0.09,-0.09 -0.18,-0.16 -0.28,-0.19 -0.11,-0.04 -0.27,-0.06 -0.49,-0.06l-0.19 0 0 1.98 -0.96 0zm0.96 -2.73l0.7 0c0.46,0 0.75,-0.02 0.86,-0.06 0.12,-0.04 0.21,-0.1 0.27,-0.2 0.07,-0.09 0.1,-0.21 0.1,-0.36 0,-0.16 -0.04,-0.28 -0.13,-0.38 -0.08,-0.1 -0.2,-0.16 -0.36,-0.19 -0.08,-0.01 -0.31,-0.01 -0.7,-0.01l-0.74 0 0 1.2zm11.17 2.73l0 -4.73 2.02 0c0.5,0 0.87,0.04 1.1,0.12 0.23,0.09 0.41,0.24 0.55,0.46 0.14,0.22 0.21,0.46 0.21,0.74 0,0.36 -0.11,0.65 -0.31,0.88 -0.21,0.24 -0.52,0.38 -0.94,0.44 0.21,0.12 0.38,0.25 0.51,0.4 0.14,0.14 0.32,0.4 0.54,0.77l0.58 0.92 -1.14 0 -0.69 -1.03c-0.24,-0.37 -0.41,-0.6 -0.5,-0.7 -0.09,-0.09 -0.19,-0.16 -0.29,-0.19 -0.1,-0.04 -0.26,-0.06 -0.49,-0.06l-0.19 0 0 1.98 -0.96 0zm0.96 -2.73l0.71 0c0.46,0 0.74,-0.02 0.86,-0.06 0.11,-0.04 0.2,-0.1 0.26,-0.2 0.07,-0.09 0.1,-0.21 0.1,-0.36 0,-0.16 -0.04,-0.28 -0.13,-0.38 -0.08,-0.1 -0.2,-0.16 -0.35,-0.19 -0.08,-0.01 -0.32,-0.01 -0.7,-0.01l-0.75 0 0 1.2zm7.5 2.73l0 -4.73 3.5 0 0 0.8 -2.54 0 0 1.05 2.37 0 0 0.8 -2.37 0 0 1.28 2.64 0 0 0.8 -3.6 0zm7.84 -1.53l0.93 -0.09c0.06,0.31 0.17,0.54 0.34,0.68 0.17,0.15 0.4,0.22 0.69,0.22 0.31,0 0.54,-0.06 0.7,-0.19 0.15,-0.13 0.23,-0.29 0.23,-0.46 0,-0.11 -0.03,-0.21 -0.1,-0.29 -0.06,-0.08 -0.18,-0.14 -0.34,-0.2 -0.11,-0.04 -0.37,-0.11 -0.76,-0.21 -0.51,-0.13 -0.87,-0.28 -1.08,-0.47 -0.29,-0.26 -0.43,-0.58 -0.43,-0.96 0,-0.24 0.07,-0.46 0.2,-0.67 0.14,-0.21 0.33,-0.38 0.59,-0.49 0.26,-0.11 0.57,-0.16 0.93,-0.16 0.59,0 1.04,0.13 1.34,0.39 0.3,0.27 0.46,0.62 0.47,1.06l-0.96 0.03c-0.04,-0.24 -0.13,-0.42 -0.26,-0.53 -0.13,-0.1 -0.33,-0.16 -0.6,-0.16 -0.28,0 -0.49,0.06 -0.65,0.18 -0.1,0.07 -0.15,0.17 -0.15,0.29 0,0.11 0.05,0.21 0.14,0.29 0.12,0.1 0.41,0.21 0.88,0.32 0.46,0.11 0.81,0.22 1.03,0.34 0.22,0.12 0.39,0.28 0.52,0.48 0.13,0.2 0.19,0.46 0.19,0.75 0,0.28 -0.08,0.53 -0.23,0.77 -0.15,0.23 -0.36,0.41 -0.64,0.53 -0.27,0.11 -0.62,0.17 -1.03,0.17 -0.6,0 -1.06,-0.14 -1.38,-0.42 -0.32,-0.27 -0.51,-0.67 -0.57,-1.2zm8.34 1.53l0 -4.73 3.51 0 0 0.8 -2.55 0 0 1.05 2.37 0 0 0.8 -2.37 0 0 1.28 2.64 0 0 0.8 -3.6 0zm12.36 0l-1.03 0 -0.41 -1.08 -1.9 0 -0.39 1.08 -1.02 0 1.84 -4.73 1.01 0 1.9 4.73zm-1.75 -1.88l-0.66 -1.75 -0.64 1.75 1.3 0zm5.94 1.88l0 -4.73 2.02 0c0.5,0 0.87,0.04 1.1,0.12 0.23,0.09 0.41,0.24 0.55,0.46 0.14,0.22 0.21,0.46 0.21,0.74 0,0.36 -0.1,0.65 -0.31,0.88 -0.21,0.24 -0.52,0.38 -0.94,0.44 0.21,0.12 0.38,0.25 0.51,0.4 0.14,0.14 0.32,0.4 0.55,0.77l0.57 0.92 -1.14 0 -0.69 -1.03c-0.24,-0.37 -0.41,-0.6 -0.5,-0.7 -0.09,-0.09 -0.19,-0.16 -0.29,-0.19 -0.1,-0.04 -0.26,-0.06 -0.48,-0.06l-0.2 0 0 1.98 -0.96 0zm0.96 -2.73l0.71 0c0.46,0 0.74,-0.02 0.86,-0.06 0.11,-0.04 0.2,-0.1 0.27,-0.2 0.06,-0.09 0.09,-0.21 0.09,-0.36 0,-0.16 -0.04,-0.28 -0.12,-0.38 -0.09,-0.1 -0.21,-0.16 -0.36,-0.19 -0.08,-0.01 -0.31,-0.01 -0.7,-0.01l-0.75 0 0 1.2zm10.53 0.99l0.93 0.28c-0.15,0.52 -0.38,0.91 -0.71,1.16 -0.33,0.25 -0.75,0.38 -1.26,0.38 -0.63,0 -1.15,-0.21 -1.55,-0.64 -0.41,-0.43 -0.61,-1.02 -0.61,-1.77 0,-0.79 0.2,-1.4 0.61,-1.84 0.41,-0.43 0.94,-0.65 1.61,-0.65 0.57,0 1.05,0.17 1.41,0.51 0.21,0.21 0.37,0.5 0.48,0.88l-0.94 0.22c-0.06,-0.24 -0.18,-0.44 -0.35,-0.58 -0.18,-0.14 -0.4,-0.21 -0.65,-0.21 -0.35,0 -0.64,0.13 -0.86,0.38 -0.22,0.25 -0.33,0.66 -0.33,1.22 0,0.6 0.11,1.03 0.33,1.28 0.21,0.25 0.49,0.38 0.84,0.38 0.25,0 0.47,-0.08 0.66,-0.24 0.18,-0.16 0.31,-0.42 0.39,-0.76zm5.43 1.74l0 -4.73 0.96 0 0 1.86 1.86 0 0 -1.86 0.96 0 0 4.73 -0.96 0 0 -2.07 -1.86 0 0 2.07 -0.96 0z"/>
  </g>
 </g>
</svg>
